<?xml version="1.0" standalone="no"?>
<!DOCTYPE svg PUBLIC "-//W3C//DTD SVG 20010904//EN"
 "http://www.w3.org/TR/2001/REC-SVG-20010904/DTD/svg10.dtd">
<svg version="1.0" xmlns="http://www.w3.org/2000/svg"
 width="512.000000pt" height="512.000000pt" viewBox="0 0 512.000000 512.000000"
 preserveAspectRatio="xMidYMid meet">
<metadata>
Created by potrace 1.14, written by Peter Selinger 2001-2017
</metadata>
<g transform="translate(0.000000,512.000000) scale(0.100000,-0.100000)"
fill="#000000" stroke="none">
<path d="M2384 5110 c-1109 -80 -2037 -855 -2309 -1929 -56 -222 -69 -336 -69
-616 -1 -203 3 -285 17 -375 88 -563 332 -1046 726 -1440 371 -370 806 -603
1311 -704 199 -39 327 -49 568 -43 402 10 729 91 1077 266 504 255 900 654
1146 1156 129 264 196 479 240 766 31 204 31 524 0 728 -83 546 -312 1013
-699 1423 -223 237 -585 475 -915 602 -340 132 -736 192 -1093 166z m55 -1155
c71 -17 160 -61 212 -105 l34 -28 -22 -24 c-26 -27 -29 -48 -11 -66 20 -20 36
-14 94 33 234 191 549 178 760 -30 73 -72 114 -139 150 -245 21 -64 25 -231 6
-293 -9 -34 -8 -41 9 -58 27 -27 56 -10 65 36 8 45 19 51 51 30 92 -61 180
-177 212 -279 45 -147 33 -268 -41 -415 -32 -64 -39 -87 -31 -100 17 -27 44
-25 69 6 l24 28 35 -40 c44 -51 100 -165 114 -233 26 -126 7 -264 -52 -377
-43 -82 -155 -193 -235 -233 -177 -88 -378 -79 -545 24 -100 62 -110 40 -68
-146 36 -161 38 -194 12 -236 -24 -40 -95 -69 -145 -60 -67 13 -92 46 -116
152 -51 225 -202 409 -400 490 -106 43 -135 46 -178 16 -123 -84 -265 -116
-398 -88 -214 43 -359 184 -414 402 l-10 42 -123 -1 c-143 0 -217 19 -313 81
-292 190 -335 593 -89 836 68 67 173 123 267 142 40 8 77 19 81 23 4 4 9 41
10 82 4 88 28 142 84 188 38 32 116 61 161 61 24 0 25 -1 19 -59 -8 -70 6 -97
44 -88 23 6 26 14 37 89 44 309 341 513 641 443z"/>
<path d="M2598 3664 c-35 -19 -48 -43 -48 -93 0 -31 7 -46 30 -69 l30 -30 0
-131 0 -131 -45 0 -45 0 0 88 c0 107 -9 121 -89 151 -47 17 -62 28 -67 47 -10
39 -59 74 -106 74 -30 0 -46 -7 -69 -29 -84 -85 20 -224 123 -164 32 18 35 18
78 2 l45 -17 3 -76 3 -76 -110 0 c-133 0 -131 2 -131 -134 l0 -96 -74 0 -74 0
-16 46 c-14 41 -14 49 -1 67 32 45 14 122 -35 150 -35 21 -62 21 -100 2 -84
-43 -72 -158 20 -193 18 -7 30 -25 44 -63 30 -86 35 -89 143 -89 l93 0 0 -50
0 -50 -130 0 c-119 0 -130 2 -140 20 -13 23 -60 50 -90 50 -37 0 -81 -30 -96
-67 -44 -104 88 -193 168 -113 l30 30 129 0 129 0 0 -45 0 -45 -90 0 c-106 0
-119 -8 -145 -92 -15 -46 -22 -56 -55 -70 -108 -46 -76 -198 42 -198 78 0 127
94 82 158 -14 20 -14 27 1 72 l17 50 74 0 74 0 0 -98 c0 -63 4 -104 13 -115
10 -13 33 -17 117 -19 l105 -3 3 -73 3 -72 -48 -21 c-44 -19 -50 -19 -75 -5
-103 61 -210 -61 -133 -152 51 -61 143 -46 172 26 13 35 22 41 80 62 77 27 83
38 83 156 l0 84 45 0 45 0 0 -131 0 -131 -30 -35 c-87 -98 26 -227 137 -156
52 34 50 135 -3 170 -24 15 -25 17 -22 147 l3 131 45 0 45 0 3 -96 c3 -111 7
-117 90 -144 40 -13 56 -24 63 -44 25 -66 82 -93 143 -67 101 42 71 196 -38
196 -23 0 -51 -7 -63 -15 -18 -13 -26 -13 -67 1 l-46 16 0 79 0 79 103 0 c67
0 107 4 115 12 8 8 12 48 12 115 l0 104 77 -3 76 -3 15 -43 c12 -38 12 -47 -2
-76 -25 -53 -20 -84 18 -122 27 -27 42 -34 73 -34 118 1 141 157 29 204 -26
11 -35 23 -49 69 -24 77 -42 87 -149 87 l-88 0 0 45 0 45 135 0 c113 0 137 -3
142 -15 3 -9 18 -22 34 -30 109 -57 211 67 130 157 -25 28 -36 33 -76 33 -40
0 -51 -5 -76 -32 l-29 -33 -130 0 -130 0 0 50 0 50 94 0 c110 0 113 2 146 89
16 44 28 61 40 61 10 0 32 14 49 31 45 45 44 98 -4 146 -32 32 -40 35 -76 30
-79 -11 -120 -86 -84 -154 17 -32 18 -37 3 -76 l-15 -42 -76 -3 -77 -3 0 104
c0 67 -4 107 -12 115 -8 8 -48 12 -115 12 l-103 0 0 79 0 78 45 13 c38 11 49
10 79 -4 19 -9 41 -16 51 -16 30 0 75 30 91 61 52 102 -86 201 -167 120 -16
-16 -29 -38 -29 -49 0 -16 -12 -24 -52 -37 -98 -32 -98 -32 -98 -145 l0 -100
-50 0 -50 0 0 133 c0 121 2 133 20 144 11 7 27 27 36 44 47 91 -56 183 -148
133z m77 -89 c0 -30 -39 -27 -43 3 -3 20 0 23 20 20 15 -2 23 -10 23 -23z
m-389 -96 c8 -14 -21 -43 -35 -35 -6 4 -11 16 -11 27 0 21 34 27 46 8z m778 2
c10 -16 -6 -42 -23 -39 -9 2 -17 13 -19 26 -3 16 2 22 17 22 11 0 22 -4 25 -9z
m-1096 -329 c3 -16 -2 -22 -17 -22 -24 0 -35 15 -27 36 9 23 40 13 44 -14z
m1410 5 c4 -20 -25 -34 -40 -19 -15 15 -1 44 19 40 10 -2 19 -11 21 -21z
m-358 -392 l0 -365 -370 0 -370 0 0 365 0 365 370 0 370 0 0 -365z m-1163 14
c16 -16 5 -39 -17 -39 -25 0 -35 18 -20 35 15 18 22 19 37 4z m1631 -12 c4
-20 -25 -34 -40 -19 -15 15 -1 44 19 40 10 -2 19 -11 21 -21z m-1520 -395 c3
-16 -2 -22 -17 -22 -24 0 -35 15 -27 36 9 23 40 13 44 -14z m1410 5 c4 -20
-25 -34 -40 -19 -15 15 -1 44 19 40 10 -2 19 -11 21 -21z m-1092 -308 c3 -6 0
-18 -9 -26 -18 -18 -37 -9 -37 18 0 21 34 27 46 8z m780 0 c8 -14 -21 -43 -35
-35 -19 12 -13 46 8 46 11 0 23 -5 27 -11z m-396 -104 c10 -12 10 -18 0 -29
-14 -18 -40 -10 -40 13 0 32 20 40 40 16z"/>
<path d="M2396 3024 c-14 -13 -16 -51 -16 -263 0 -179 3 -250 12 -259 17 -17
499 -17 516 0 9 9 12 81 12 265 0 239 -1 253 -19 263 -12 6 -112 10 -255 10
-200 0 -237 -2 -250 -16z m444 -259 l0 -195 -190 0 -190 0 0 195 0 195 190 0
190 0 0 -195z"/>
</g>
</svg>
